<?xml version="1.0" encoding="UTF-8"?>
<svg width="90px" height="106px" viewBox="0 0 90 106" version="1.1" xmlns="http://www.w3.org/2000/svg" xmlns:xlink="http://www.w3.org/1999/xlink">
    <!-- Generator: sketchtool 49.3 (51167) - http://www.bohemiancoding.com/sketch -->
    <title>8E74AF61-8932-4F83-9DE4-B31087C9E4A4</title>
    <desc>Created with sketchtool.</desc>
    <defs></defs>
    <g id="Symbols" stroke="none" stroke-width="1" fill="none" fill-rule="evenodd" opacity="0.6">
        <g id="Sidebar" transform="translate(-108.000000, -863.000000)" stroke="#333333" stroke-width="4">
            <g id="Face-Scan" transform="translate(110.000000, 865.000000)">
                <path d="M23.0092201,102 L0,102 L0,78.8161972 M86,78.8161972 L86,102 L62.9914266,102 M62.9920734,0 L86,0 L86,23.1838028 M0,23.1838028 L0,0 L23.0092201,0 M25.3808979,48.1284173 L25.3808979,47.7804256 C24.5620967,43.627986 24.0492141,39.2644054 24.0492141,36.1253123 C24.0492141,25.5793408 25.7741295,12.2689607 43,12.2689607 C60.2258705,12.2689607 61.9507859,25.5793408 61.9507859,36.1253123 C61.9507859,39.2644054 61.4379033,43.627986 60.6191021,47.7804256 L60.6191021,48.1284173 M26.5547718,52.7793842 C27.3017824,55.4570952 28.1619764,57.7151309 29.0583891,59.019122 C32.398917,63.1187764 37.1733173,70.7869743 43,70.7869743 C48.8266827,70.7869743 53.6004362,63.1187764 56.9409641,59.019122 C57.8380236,57.7151309 58.6982176,55.4570952 59.4452282,52.7793842" id="Stroke-6"></path>
                <path d="M30.4835323,61 L30.4835323,77.1218981 C30.4835323,80.0572486 15,88 15,88 M55.5164677,61 L55.5164677,77.1218981 C55.5164677,80.0572486 71,88 71,88" id="Stroke-8" stroke-linecap="round"></path>
                <path d="M4,53.9997121 L84,53.9997121 L4,53.9997121 Z M82.9496817,53.9997121 C82.9496817,54.5519724 82.4474679,55 81.8269722,55 C81.2071228,55 80.704909,54.5519724 80.704909,53.9997121 C80.704909,53.4474518 81.2071228,53 81.8269722,53 C82.4474679,53 82.9496817,53.4474518 82.9496817,53.9997121 Z M5.05031833,53.9997121 C5.05031833,54.5519724 5.55253208,55 6.17238148,55 C6.79223088,55 7.29509097,54.5519724 7.29509097,53.9997121 C7.29509097,53.4474518 6.79223088,53 6.17238148,53 C5.55253208,53 5.05031833,53.4474518 5.05031833,53.9997121 Z" id="Stroke-9"></path>
            </g>
        </g>
    </g>
</svg>