<?xml version="1.0" encoding="UTF-8"?>
<svg width="210px" height="29px" viewBox="0 0 210 29" version="1.1" xmlns="http://www.w3.org/2000/svg" xmlns:xlink="http://www.w3.org/1999/xlink">
    <!-- Generator: sketchtool 49.3 (51167) - http://www.bohemiancoding.com/sketch -->
    <title>AF6C1E8A-2D43-4391-A910-264F83FE227A</title>
    <desc>Created with sketchtool.</desc>
    <defs></defs>
    <g id="Symbols" stroke="none" stroke-width="1" fill="none" fill-rule="evenodd">
        <g id="Sidebar" transform="translate(-49.000000, -110.000000)">
            <g id="Logo" transform="translate(49.000000, 111.000000)">
                <path d="M7.63148633,22.9623429 C7.41857098,22.7494275 7.3121149,22.4670875 7.3121149,22.1153143 L7.3121149,5.508 L1.34125776,5.508 C1.00799895,5.508 0.748801539,5.42468655 0.563657756,5.25805714 C0.378513973,5.09142774 0.28594347,4.85074443 0.28594347,4.536 C0.28594347,4.22125557 0.378513973,3.98057226 0.563657756,3.81394286 C0.748801539,3.64731345 1.00799895,3.564 1.34125776,3.564 L15.5880006,3.564 C15.9212594,3.564 16.1804568,3.64731345 16.3656006,3.81394286 C16.5507444,3.98057226 16.6433149,4.22125557 16.6433149,4.536 C16.6433149,4.85074443 16.5507444,5.09142774 16.3656006,5.25805714 C16.1804568,5.42468655 15.9212594,5.508 15.5880006,5.508 L9.61714347,5.508 L9.61714347,22.1153143 C9.61714347,22.4670875 9.51531592,22.7494275 9.31165776,22.9623429 C9.10799959,23.1752582 8.83028809,23.2817143 8.4785149,23.2817143 C8.12674171,23.2817143 7.84440168,23.1752582 7.63148633,22.9623429 Z M33.8477149,22.8373714 C33.6347995,22.6337133 33.5283435,22.3652588 33.5283435,22.032 L33.5283435,4.67485714 C33.5283435,4.34159833 33.6347995,4.07314388 33.8477149,3.86948571 C34.0606302,3.66582755 34.3429703,3.564 34.6947435,3.564 L45.0812578,3.564 C45.4145166,3.564 45.673714,3.64731345 45.8588578,3.81394286 C46.0440015,3.98057226 46.136572,4.21199852 46.136572,4.50822857 C46.136572,4.80445862 46.0440015,5.03588488 45.8588578,5.20251429 C45.673714,5.36914369 45.4145166,5.45245714 45.0812578,5.45245714 L35.7778292,5.45245714 L35.7778292,12.2564571 L44.5258292,12.2564571 C44.859088,12.2564571 45.1182854,12.3397706 45.3034292,12.5064 C45.488573,12.6730294 45.5811435,12.9044557 45.5811435,13.2006857 C45.5811435,13.4969158 45.488573,13.728342 45.3034292,13.8949714 C45.1182854,14.0616008 44.859088,14.1449143 44.5258292,14.1449143 L35.7778292,14.1449143 L35.7778292,21.2544 L45.0812578,21.2544 C45.4145166,21.2544 45.673714,21.3330849 45.8588578,21.4904571 C46.0440015,21.6478294 46.136572,21.8838841 46.136572,22.1986286 C46.136572,22.4948586 46.0440015,22.7262849 45.8588578,22.8929143 C45.673714,23.0595437 45.4145166,23.1428571 45.0812578,23.1428571 L34.6947435,23.1428571 C34.3429703,23.1428571 34.0606302,23.0410296 33.8477149,22.8373714 Z M64.3407435,22.8512571 C64.1278281,22.6568562 64.021372,22.4022873 64.021372,22.0875429 L64.021372,4.59154286 C64.021372,4.23976967 64.1231996,3.95742964 64.3268578,3.74451429 C64.5305159,3.53159894 64.8082274,3.42514286 65.1600006,3.42514286 C65.5117738,3.42514286 65.7894853,3.53159894 65.9931435,3.74451429 C66.1968016,3.95742964 66.2986292,4.23976967 66.2986292,4.59154286 L66.2986292,21.1988571 L75.2688006,21.1988571 C75.6020594,21.1988571 75.8612568,21.2821706 76.0464006,21.4488 C76.2315444,21.6154294 76.3241149,21.8561127 76.3241149,22.1708571 C76.3241149,22.4856016 76.2315444,22.7262849 76.0464006,22.8929143 C75.8612568,23.0595437 75.6020594,23.1428571 75.2688006,23.1428571 L65.1322292,23.1428571 C64.8174848,23.1428571 64.5536588,23.0456581 64.3407435,22.8512571 Z M93.667372,22.8373714 C93.4544567,22.6337133 93.3480006,22.3652588 93.3480006,22.032 L93.3480006,4.67485714 C93.3480006,4.34159833 93.4544567,4.07314388 93.667372,3.86948571 C93.8802874,3.66582755 94.1626274,3.564 94.5144006,3.564 L104.900915,3.564 C105.234174,3.564 105.493371,3.64731345 105.678515,3.81394286 C105.863659,3.98057226 105.956229,4.21199852 105.956229,4.50822857 C105.956229,4.80445862 105.863659,5.03588488 105.678515,5.20251429 C105.493371,5.36914369 105.234174,5.45245714 104.900915,5.45245714 L95.5974863,5.45245714 L95.5974863,12.2564571 L104.345486,12.2564571 C104.678745,12.2564571 104.937943,12.3397706 105.123086,12.5064 C105.30823,12.6730294 105.400801,12.9044557 105.400801,13.2006857 C105.400801,13.4969158 105.30823,13.728342 105.123086,13.8949714 C104.937943,14.0616008 104.678745,14.1449143 104.345486,14.1449143 L95.5974863,14.1449143 L95.5974863,21.2544 L104.900915,21.2544 C105.234174,21.2544 105.493371,21.3330849 105.678515,21.4904571 C105.863659,21.6478294 105.956229,21.8838841 105.956229,22.1986286 C105.956229,22.4948586 105.863659,22.7262849 105.678515,22.8929143 C105.493371,23.0595437 105.234174,23.1428571 104.900915,23.1428571 L94.5144006,23.1428571 C94.1626274,23.1428571 93.8802874,23.0410296 93.667372,22.8373714 Z M142.045201,3.74451429 C142.239602,3.95742964 142.336801,4.23976967 142.336801,4.59154286 L142.336801,22.1708571 C142.336801,22.504116 142.24423,22.7725704 142.059086,22.9762286 C141.873943,23.1798867 141.614745,23.2817143 141.281486,23.2817143 C140.948228,23.2817143 140.698287,23.1798867 140.531658,22.9762286 C140.365028,22.7725704 140.281715,22.504116 140.281715,22.1708571 L140.281715,7.97965714 L134.255315,19.5325714 C133.996114,20.0694884 133.616575,20.3379429 133.116686,20.3379429 C132.635312,20.3379429 132.255773,20.0694884 131.978058,19.5325714 L125.923886,8.11851429 L125.923886,22.1708571 C125.923886,22.504116 125.835944,22.7725704 125.660058,22.9762286 C125.484171,23.1798867 125.229602,23.2817143 124.896343,23.2817143 C124.563085,23.2817143 124.303887,23.1798867 124.118743,22.9762286 C123.9336,22.7725704 123.841029,22.504116 123.841029,22.1708571 L123.841029,4.59154286 C123.841029,4.23976967 123.942857,3.95742964 124.146515,3.74451429 C124.350173,3.53159894 124.627885,3.42514286 124.979658,3.42514286 C125.442517,3.42514286 125.812799,3.69359732 126.090515,4.23051429 L133.144458,17.7552 L140.115086,4.23051429 C140.263201,3.93428423 140.4252,3.7260006 140.601086,3.60565714 C140.776973,3.48531368 140.985257,3.42514286 141.225943,3.42514286 C141.577717,3.42514286 141.8508,3.53159894 142.045201,3.74451429 Z M163.359772,21.3654857 C162.045251,20.0324505 161.388001,18.0699558 161.388001,15.4779429 L161.388001,4.59154286 C161.388001,4.23976967 161.489828,3.95742964 161.693486,3.74451429 C161.897144,3.53159894 162.174856,3.42514286 162.526629,3.42514286 C162.859888,3.42514286 163.128342,3.53159894 163.332001,3.74451429 C163.535659,3.95742964 163.637486,4.23976967 163.637486,4.59154286 L163.637486,15.6723429 C163.637486,17.5793238 164.104967,19.0141666 165.039943,19.9769143 C165.97492,20.939662 167.349592,21.4210286 169.164001,21.4210286 C170.97841,21.4210286 172.348453,20.939662 173.274172,19.9769143 C174.199891,19.0141666 174.662743,17.5793238 174.662743,15.6723429 L174.662743,4.59154286 C174.662743,4.23976967 174.7692,3.95742964 174.982115,3.74451429 C175.19503,3.53159894 175.468113,3.42514286 175.801372,3.42514286 C176.153145,3.42514286 176.430857,3.53159894 176.634515,3.74451429 C176.838173,3.95742964 176.940001,4.23976967 176.940001,4.59154286 L176.940001,15.4779429 C176.940001,18.0514414 176.278122,20.0093076 174.954343,21.3516 C173.630565,22.6938924 171.70047,23.3650286 169.164001,23.3650286 C166.609016,23.3650286 164.674293,22.698521 163.359772,21.3654857 Z M198.226801,22.7401714 C196.958566,22.3235979 195.944919,21.7635464 195.185829,21.06 C194.908114,20.8007987 194.769258,20.4768019 194.769258,20.088 C194.769258,19.8287987 194.843314,19.602001 194.991429,19.4076 C195.139544,19.213199 195.315428,19.116 195.519086,19.116 C195.759773,19.116 196.018971,19.2178276 196.296686,19.4214857 C198.018524,20.754521 199.981018,21.4210286 202.184229,21.4210286 C203.776466,21.4210286 204.998396,21.1155459 205.850058,20.5045714 C206.701719,19.8935969 207.127543,19.0234342 207.127543,17.8940571 C207.127543,17.2460539 206.923888,16.7230306 206.516572,16.3249714 C206.109256,15.9269123 205.572347,15.6075441 204.905829,15.3668571 C204.239312,15.1261702 203.341378,14.8762299 202.212001,14.6170286 C200.693822,14.2652554 199.448748,13.8949734 198.476743,13.5061714 C197.504739,13.1173695 196.717889,12.5619465 196.116172,11.8398857 C195.514455,11.117825 195.213601,10.1736058 195.213601,9.0072 C195.213601,7.8963373 195.514455,6.91046145 196.116172,6.04954286 C196.717889,5.18862427 197.560281,4.52211665 198.643372,4.05 C199.726463,3.57788335 200.962279,3.34182857 202.350858,3.34182857 C203.646864,3.34182857 204.854909,3.54085515 205.975029,3.93891429 C207.095149,4.33697342 208.03474,4.90628201 208.793829,5.64685714 C209.090059,5.9430872 209.238172,6.26708396 209.238172,6.61885714 C209.238172,6.87805844 209.164116,7.10485617 209.016001,7.29925714 C208.867886,7.49365811 208.692002,7.59085714 208.488343,7.59085714 C208.284685,7.59085714 208.016231,7.48902959 207.682972,7.28537143 C206.775768,6.5447963 205.933376,6.02640148 205.155772,5.73017143 C204.378168,5.43394138 203.443206,5.28582857 202.350858,5.28582857 C200.814164,5.28582857 199.620005,5.60519681 198.768343,6.24394286 C197.916682,6.88268891 197.490858,7.77599426 197.490858,8.92388571 C197.490858,9.90514776 197.865768,10.6410833 198.615601,11.1317143 C199.365433,11.6223453 200.517936,12.0527981 202.073143,12.4230857 C203.757952,12.830402 205.08171,13.2053126 206.044458,13.5478286 C207.007205,13.8903446 207.80794,14.4041109 208.446686,15.0891429 C209.085432,15.7741749 209.404801,16.6906228 209.404801,17.8385143 C209.404801,18.9308626 209.103946,19.8935958 208.502229,20.7267429 C207.900512,21.5598899 207.053492,22.2078834 205.961143,22.6707429 C204.868795,23.1336023 203.619093,23.3650286 202.212001,23.3650286 C200.823422,23.3650286 199.495036,23.1567449 198.226801,22.7401714 Z" id="T-E-L-E-M-U-S" fill="#000000" opacity="0.596127717"></path>
                <path d="M90.6428571,13.5 L109.928571,13.5" id="Line-3" stroke="#606163" stroke-width="5" stroke-linecap="square"></path>
                <path d="M91.2154018,13.5 L108.391741,13.5" id="Line-3-Copy" stroke="#ECF0F3" stroke-width="1.2" stroke-linecap="square"></path>
                <polyline id="Line-4" stroke="#000000" stroke-width="1.2" opacity="0.6" stroke-linecap="square" points="87.75 0 85.8214286 0 85.8214286 1.92857143"></polyline>
                <polyline id="Line-4-Copy-2" stroke="#000000" stroke-width="1.2" opacity="0.6" stroke-linecap="square" transform="translate(86.785714, 26.035714) scale(1, -1) translate(-86.785714, -26.035714) " points="87.75 25.0714286 85.8214286 25.0714286 85.8214286 27"></polyline>
                <polyline id="Line-4-Copy" stroke="#000000" stroke-width="1.2" opacity="0.6" stroke-linecap="square" transform="translate(111.857143, 0.964286) rotate(90.000000) translate(-111.857143, -0.964286) " points="112.821429 0 110.892857 0 110.892857 1.92857143"></polyline>
                <polyline id="Line-4-Copy-3" stroke="#000000" stroke-width="1.2" opacity="0.6" stroke-linecap="square" transform="translate(111.857143, 26.035714) scale(1, -1) rotate(90.000000) translate(-111.857143, -26.035714) " points="112.821429 25.0714286 110.892857 25.0714286 110.892857 27"></polyline>
            </g>
        </g>
    </g>
</svg>